<svg width="22" height="20" viewBox="0 0 22 20" fill="none" xmlns="http://www.w3.org/2000/svg">
<path d="M2.96154 15.4661C5.04872 15.4661 6.71282 14.661 7.95385 13.0508C7.95385 12.9378 7.88333 12.839 7.74231 12.7542L6.93846 11.144C6.57179 11.9067 6.02885 12.5212 5.30962 12.9873C4.59038 13.4534 3.80769 13.6864 2.96154 13.6864H0.888461C0.66282 13.6864 0.458333 13.7782 0.275 13.9618C0.0916667 14.1455 0 14.3503 0 14.5762C0 14.8022 0.0916667 15.007 0.275 15.1906C0.458333 15.3743 0.66282 15.4661 0.888461 15.4661H2.96154ZM18.7 0.381327C18.2487 -0.0141532 17.8256 -0.0141532 17.4308 0.381327C17.0077 0.805056 17.0077 1.22878 17.4308 1.65251L18.5731 2.83895H15.0615C13.0026 2.83895 11.3526 3.64404 10.1115 5.25421C10.1115 5.33895 10.1679 5.43782 10.2808 5.55082L11.0846 7.16099C11.4513 6.39828 11.9942 5.78387 12.7135 5.31777C13.4327 4.85167 14.2154 4.61861 15.0615 4.61861H18.5731L17.4308 5.80506C17.0077 6.22878 17.0077 6.65251 17.4308 7.07624C17.6 7.24573 17.8115 7.33048 18.0654 7.33048C18.2628 7.33048 18.4744 7.24573 18.7 7.07624L21.4077 4.36438C21.7744 3.94065 21.7744 3.51692 21.4077 3.09319L18.7 0.381327ZM18.7 11.2288C18.2487 10.8333 17.8256 10.8333 17.4308 11.2288C17.0077 11.6525 17.0077 12.0762 17.4308 12.5L18.5731 13.6864H15.0615C14.2154 13.6864 13.4256 13.4534 12.6923 12.9873C11.959 12.5212 11.3949 11.9067 11 11.144L10.0269 9.15251L9.01154 7.16099L8.58846 6.3559C8.08077 5.28246 7.31923 4.42794 6.30385 3.79234C5.28846 3.15675 4.17436 2.83895 2.96154 2.83895H0.888461C0.66282 2.83895 0.458333 2.93076 0.275 3.11438C0.0916667 3.29799 0 3.5028 0 3.72878C0 3.95477 0.0916667 4.15958 0.275 4.34319C0.458333 4.52681 0.66282 4.61861 0.888461 4.61861H2.96154C4.76667 4.61861 6.12051 5.46607 7.02308 7.16099L8.03846 9.15251L9.01154 11.144L9.47692 11.9491C10.041 13.0226 10.8237 13.8771 11.825 14.5127C12.8263 15.1483 13.9333 15.4661 15.1462 15.4661H18.7L17.5154 16.6525C17.0923 17.0762 17.0923 17.5 17.5154 17.9237C17.6846 18.0932 17.8962 18.1779 18.15 18.1779C18.3756 18.1779 18.5872 18.0932 18.7846 17.9237L21.4923 15.2118C21.859 14.7881 21.859 14.3644 21.4923 13.9406L18.7 11.2288Z" fill="white"/>
</svg>
