<svg width="78" height="69" viewBox="0 0 78 69" fill="none" xmlns="http://www.w3.org/2000/svg">
<path d="M39 26.6074C43.6758 26.6074 48.0818 24.4271 50.9182 20.7154C50.9316 20.6984 50.9603 20.6626 51.0035 20.6097C51.121 20.4662 51.3388 20.2068 51.6438 19.8705C52.2711 19.1788 53.1715 18.2675 54.239 17.3897C55.3298 16.4928 56.3657 15.8206 57.2514 15.4075C58.1102 15.0069 58.5004 15.0001 58.5004 15L58.5 15C61.2405 15 63 17.1128 63 19.1521C63 21.2282 62.6367 25.7388 59.1252 31.7822C56.0529 37.07 50.2227 44.1257 39 51.8711C27.7773 44.1257 21.9471 37.07 18.8748 31.7822C15.3633 25.7388 15 21.2282 15 19.1521C15 17.1128 16.7595 15 19.5 15L19.4996 15C19.4996 15.0001 19.8898 15.0069 20.7486 15.4075C21.6343 15.8206 22.6702 16.4928 23.761 17.3897C24.8285 18.2675 25.7289 19.1788 26.3562 19.8705C26.6612 20.2068 26.879 20.4662 26.9965 20.6097C27.0398 20.6626 27.0684 20.6985 27.0818 20.7154C29.9182 24.4271 34.3242 26.6074 39 26.6074Z" stroke="white" stroke-width="30" stroke-linecap="round" stroke-linejoin="round"/>
</svg>
