<svg width="22" height="22" viewBox="0 0 19 20" fill="none" xmlns="http://www.w3.org/2000/svg">
<path d="M2.18944 20.0008H16.2748C16.8085 20.0008 17.3203 19.7901 17.6976 19.415C18.075 19.0399 18.287 18.5312 18.287 18.0008V9.00079C18.2878 8.86919 18.2624 8.73872 18.2123 8.61689C18.1623 8.49505 18.0885 8.38423 17.9952 8.29079L9.94645 0.290793C9.75795 0.104542 9.50295 0 9.23715 0C8.97136 0 8.71636 0.104542 8.52786 0.290793L0.479075 8.29079C0.384011 8.38341 0.308383 8.49385 0.256572 8.61573C0.204762 8.7376 0.177799 8.86849 0.177246 9.00079V18.0008C0.177246 18.5312 0.389245 19.0399 0.766604 19.415C1.14396 19.7901 1.65577 20.0008 2.18944 20.0008ZM7.21993 18.0008V13.0008H11.2443V18.0008H7.21993ZM2.18944 9.41079L9.23212 2.41079L16.2748 9.41079V18.0008H13.2565V13.0008C13.2565 12.4704 13.0445 11.9617 12.6672 11.5866C12.2898 11.2115 11.778 11.0008 11.2443 11.0008H7.21993C6.68626 11.0008 6.17445 11.2115 5.79709 11.5866C5.41973 11.9617 5.20773 12.4704 5.20773 13.0008V18.0008H2.18944V9.41079Z" fill="white"/>
</svg>
