<svg width="12" height="14" viewBox="0 0 12 14" fill="none" xmlns="http://www.w3.org/2000/svg">
<path d="M0.599999 0C0.75913 0 0.911742 0.0614583 1.02426 0.170854C1.13679 0.280251 1.2 0.428624 1.2 0.583333V5.55734L9.92887 0.477969C10.1305 0.358736 10.3613 0.294344 10.5973 0.291522C10.8333 0.2887 11.0657 0.347552 11.2703 0.461927C11.7203 0.709844 12 1.18964 12 1.71354V12.2865C12 12.8104 11.7203 13.2902 11.2703 13.5381C11.0656 13.6524 10.8332 13.7111 10.5973 13.7082C10.3613 13.7054 10.1305 13.6409 9.92887 13.5217L1.2 8.44266V13.4167C1.2 13.5714 1.13679 13.7197 1.02426 13.8291C0.911742 13.9385 0.75913 14 0.599999 14C0.440869 14 0.288257 13.9385 0.175735 13.8291C0.0632133 13.7197 0 13.5714 0 13.4167V0.583333C0 0.428624 0.0632133 0.280251 0.175735 0.170854C0.288257 0.0614583 0.440869 0 0.599999 0Z" fill="white"/>
</svg>
