<svg width="18" height="24" viewBox="0 0 18 24" fill="none" xmlns="http://www.w3.org/2000/svg">
<path d="M3 4.5C3 4.10218 3.15804 3.72064 3.43934 3.43934C3.72064 3.15804 4.10218 3 4.5 3H13.5C13.8978 3 14.2794 3.15804 14.5607 3.43934C14.842 3.72064 15 4.10218 15 4.5V9C15 9.39782 14.842 9.77936 14.5607 10.0607C14.2794 10.342 13.8978 10.5 13.5 10.5H4.5C4.10218 10.5 3.72064 10.342 3.43934 10.0607C3.15804 9.77936 3 9.39782 3 9V4.5ZM4.5 4.5V9H13.5V4.5H4.5ZM9 18C9.39782 18 9.77936 17.842 10.0607 17.5607C10.342 17.2794 10.5 16.8978 10.5 16.5C10.5 16.1022 10.342 15.7206 10.0607 15.4393C9.77936 15.158 9.39782 15 9 15C8.60218 15 8.22064 15.158 7.93934 15.4393C7.65804 15.7206 7.5 16.1022 7.5 16.5C7.5 16.8978 7.65804 17.2794 7.93934 17.5607C8.22064 17.842 8.60218 18 9 18Z" fill="white"/>
<path d="M13.5 16.5C13.5 17.6935 13.0259 18.8381 12.182 19.682C11.3381 20.5259 10.1935 21 9 21C7.80653 21 6.66193 20.5259 5.81802 19.682C4.97411 18.8381 4.5 17.6935 4.5 16.5C4.5 15.3065 4.97411 14.1619 5.81802 13.318C6.66193 12.4741 7.80653 12 9 12C10.1935 12 11.3381 12.4741 12.182 13.318C13.0259 14.1619 13.5 15.3065 13.5 16.5ZM9 19.5C9.79565 19.5 10.5587 19.1839 11.1213 18.6213C11.6839 18.0587 12 17.2956 12 16.5C12 15.7044 11.6839 14.9413 11.1213 14.3787C10.5587 13.8161 9.79565 13.5 9 13.5C8.20435 13.5 7.44129 13.8161 6.87868 14.3787C6.31607 14.9413 6 15.7044 6 16.5C6 17.2956 6.31607 18.0587 6.87868 18.6213C7.44129 19.1839 8.20435 19.5 9 19.5Z" fill="white"/>
<path d="M0 3C0 2.20435 0.31607 1.44129 0.87868 0.87868C1.44129 0.316071 2.20435 0 3 0L15 0C15.7956 0 16.5587 0.316071 17.1213 0.87868C17.6839 1.44129 18 2.20435 18 3V21C18 21.7956 17.6839 22.5587 17.1213 23.1213C16.5587 23.6839 15.7956 24 15 24H3C2.20435 24 1.44129 23.6839 0.87868 23.1213C0.31607 22.5587 0 21.7956 0 21V3ZM3 1.5C2.60218 1.5 2.22064 1.65804 1.93934 1.93934C1.65804 2.22064 1.5 2.60218 1.5 3V21C1.5 21.3978 1.65804 21.7794 1.93934 22.0607C2.22064 22.342 2.60218 22.5 3 22.5H15C15.3978 22.5 15.7794 22.342 16.0607 22.0607C16.342 21.7794 16.5 21.3978 16.5 21V3C16.5 2.60218 16.342 2.22064 16.0607 1.93934C15.7794 1.65804 15.3978 1.5 15 1.5H3Z" fill="white"/>
</svg>
