<svg width="21" height="21" viewBox="0 0 21 21" fill="none" xmlns="http://www.w3.org/2000/svg">
<path d="M20.7693 12.75V18.375C20.7693 18.9717 20.5308 19.544 20.1062 19.966C19.6817 20.3879 19.1059 20.625 18.5055 20.625H2.65926C2.05887 20.625 1.48308 20.3879 1.05854 19.966C0.634009 19.544 0.395508 18.9717 0.395508 18.375V2.625C0.395508 2.02826 0.634009 1.45597 1.05854 1.03401C1.48308 0.612053 2.05887 0.375 2.65926 0.375H8.31863V2.625H2.65926V18.375H18.5055V12.75H20.7693Z" fill="white"/>
<path d="M20.7692 4.875H16.2417V0.375H13.9779V4.875H9.45044V7.125H13.9779V11.625H16.2417V7.125H20.7692V4.875Z" fill="white"/>
</svg>
