<svg width="12" height="14" viewBox="0 0 12 14" fill="none" xmlns="http://www.w3.org/2000/svg">
<path d="M11.4 0C11.2409 0 11.0883 0.0614583 10.9757 0.170854C10.8632 0.280251 10.8 0.428624 10.8 0.583333V5.55734L2.07113 0.477969C1.86951 0.358736 1.63866 0.294344 1.40269 0.291522C1.16673 0.2887 0.934318 0.347552 0.72975 0.461927C0.27975 0.709844 0 1.18964 0 1.71354V12.2865C0 12.8104 0.27975 13.2902 0.72975 13.5381C0.934364 13.6524 1.16679 13.7111 1.40275 13.7082C1.6387 13.7054 1.86953 13.6409 2.07113 13.5217L10.8 8.44266V13.4167C10.8 13.5714 10.8632 13.7197 10.9757 13.8291C11.0883 13.9385 11.2409 14 11.4 14C11.5591 14 11.7117 13.9385 11.8243 13.8291C11.9368 13.7197 12 13.5714 12 13.4167V0.583333C12 0.428624 11.9368 0.280251 11.8243 0.170854C11.7117 0.0614583 11.5591 0 11.4 0Z" fill="white"/>
</svg>
