<svg width="22" height="22" viewBox="0 0 22 22" fill="none" xmlns="http://www.w3.org/2000/svg">
<path d="M15.3257 18.106L14.7391 13.409C14.6559 12.7437 14.3326 12.1317 13.8299 11.6881C13.3272 11.2444 12.6797 10.9997 12.0092 11H9.98891C9.31876 11.0002 8.67174 11.2451 8.1694 11.6887C7.66707 12.1323 7.34401 12.744 7.26091 13.409L6.67333 18.106C6.64108 18.3641 6.6641 18.626 6.74087 18.8745C6.81763 19.123 6.94638 19.3523 7.11856 19.5472C7.29074 19.7421 7.50242 19.8981 7.73953 20.0049C7.97664 20.1117 8.23377 20.1669 8.49383 20.1667H13.5062C13.7661 20.1667 14.0232 20.1115 14.2602 20.0046C14.4972 19.8977 14.7087 19.7417 14.8808 19.5468C15.0529 19.3519 15.1816 19.1227 15.2583 18.8743C15.335 18.6259 15.358 18.364 15.3257 18.106V18.106Z" stroke="white" stroke-width="2" stroke-linecap="round" stroke-linejoin="round"/>
<path d="M11 7.33337C12.5188 7.33337 13.75 6.10216 13.75 4.58337C13.75 3.06459 12.5188 1.83337 11 1.83337C9.48122 1.83337 8.25 3.06459 8.25 4.58337C8.25 6.10216 9.48122 7.33337 11 7.33337Z" stroke="white" stroke-width="2"/>
<path d="M3.66659 10.0834C4.67911 10.0834 5.49992 9.2626 5.49992 8.25008C5.49992 7.23756 4.67911 6.41675 3.66659 6.41675C2.65406 6.41675 1.83325 7.23756 1.83325 8.25008C1.83325 9.2626 2.65406 10.0834 3.66659 10.0834Z" stroke="white" stroke-width="2"/>
<path d="M18.3333 10.0834C19.3459 10.0834 20.1667 9.2626 20.1667 8.25008C20.1667 7.23756 19.3459 6.41675 18.3333 6.41675C17.3208 6.41675 16.5 7.23756 16.5 8.25008C16.5 9.2626 17.3208 10.0834 18.3333 10.0834Z" stroke="white" stroke-width="2"/>
<path d="M18.3333 12.8334H18.6138C19.0478 12.8333 19.4677 12.9872 19.7989 13.2677C20.13 13.5482 20.351 13.9371 20.4224 14.3651L20.7276 16.1985C20.7714 16.4611 20.7575 16.7302 20.6868 16.9869C20.616 17.2436 20.4902 17.4819 20.3181 17.6851C20.146 17.8883 19.9317 18.0515 19.6901 18.1635C19.4484 18.2754 19.1853 18.3334 18.919 18.3334H15.5833M3.66662 12.8334H3.38612C2.95214 12.8333 2.53221 12.9872 2.20103 13.2677C1.86986 13.5482 1.64893 13.9371 1.57754 14.3651L1.27229 16.1985C1.22848 16.4611 1.24243 16.7302 1.31314 16.9869C1.38386 17.2436 1.50966 17.4819 1.68179 17.6851C1.85392 17.8883 2.06824 18.0515 2.30986 18.1635C2.55147 18.2754 2.81458 18.3334 3.08087 18.3334H6.41662L3.66662 12.8334Z" stroke="white" stroke-width="2" stroke-linecap="round" stroke-linejoin="round"/>
</svg>
