<svg width="20" height="20" viewBox="0 0 20 20" fill="none" xmlns="http://www.w3.org/2000/svg">
<path d="M11.25 15C11.25 15.1658 11.1842 15.3247 11.0669 15.4419C10.9497 15.5592 10.7908 15.625 10.625 15.625H3.125C2.95924 15.625 2.80027 15.5592 2.68306 15.4419C2.56585 15.3247 2.5 15.1658 2.5 15C2.5 14.8342 2.56585 14.6753 2.68306 14.5581C2.80027 14.4408 2.95924 14.375 3.125 14.375H10.625C10.7908 14.375 10.9497 14.4408 11.0669 14.5581C11.1842 14.6753 11.25 14.8342 11.25 15ZM3.125 5.625H16.875C17.0408 5.625 17.1997 5.55915 17.3169 5.44194C17.4342 5.32473 17.5 5.16576 17.5 5C17.5 4.83424 17.4342 4.67527 17.3169 4.55806C17.1997 4.44085 17.0408 4.375 16.875 4.375H3.125C2.95924 4.375 2.80027 4.44085 2.68306 4.55806C2.56585 4.67527 2.5 4.83424 2.5 5C2.5 5.16576 2.56585 5.32473 2.68306 5.44194C2.80027 5.55915 2.95924 5.625 3.125 5.625ZM10.625 9.375H3.125C2.95924 9.375 2.80027 9.44085 2.68306 9.55806C2.56585 9.67527 2.5 9.83424 2.5 10C2.5 10.1658 2.56585 10.3247 2.68306 10.4419C2.80027 10.5592 2.95924 10.625 3.125 10.625H10.625C10.7908 10.625 10.9497 10.5592 11.0669 10.4419C11.1842 10.3247 11.25 10.1658 11.25 10C11.25 9.83424 11.1842 9.67527 11.0669 9.55806C10.9497 9.44085 10.7908 9.375 10.625 9.375ZM19.0813 11.97L14.0813 8.845C13.9866 8.78587 13.8779 8.75314 13.7664 8.75021C13.6549 8.74729 13.5446 8.77426 13.447 8.82835C13.3494 8.88243 13.2681 8.96165 13.2115 9.05778C13.1549 9.1539 13.125 9.26343 13.125 9.375V15.625C13.125 15.7366 13.1549 15.8461 13.2115 15.9422C13.2681 16.0384 13.3494 16.1176 13.447 16.1717C13.5446 16.2257 13.6549 16.2527 13.7664 16.2498C13.8779 16.2469 13.9866 16.2141 14.0813 16.155L19.0813 13.03C19.1711 12.9738 19.2453 12.8957 19.2967 12.803C19.348 12.7103 19.375 12.606 19.375 12.5C19.375 12.394 19.348 12.2897 19.2967 12.197C19.2453 12.1043 19.1711 12.0262 19.0813 11.97Z" fill="white"/>
</svg>
