<svg width="22" height="22" viewBox="0 0 19 19" fill="none" xmlns="http://www.w3.org/2000/svg">
<path d="M10.9031 12.2533C9.51521 13.234 7.8073 13.6607 6.11782 13.4489C4.42834 13.237 2.88059 12.402 1.78132 11.1093C0.682048 9.81668 0.111485 8.16072 0.182705 6.46965C0.253925 4.77857 0.961731 3.1758 2.16585 1.97899C3.36996 0.782169 4.9825 0.0786528 6.68389 0.00786415C8.38528 -0.0629245 10.0513 0.504181 11.3519 1.59679C12.6524 2.6894 13.4925 4.22776 13.7057 5.90701C13.9188 7.58625 13.4895 9.28381 12.5028 10.6633L17.9553 16.0813C18.0665 16.1842 18.1557 16.3084 18.2176 16.4464C18.2794 16.5844 18.3127 16.7334 18.3154 16.8845C18.3181 17.0355 18.2901 17.1856 18.2332 17.3256C18.1762 17.4657 18.0915 17.593 17.984 17.6998C17.8766 17.8066 17.7485 17.8909 17.6076 17.9474C17.4667 18.004 17.3157 18.0318 17.1637 18.0291C17.0117 18.0265 16.8619 17.9934 16.723 17.9319C16.5842 17.8704 16.4592 17.7818 16.3556 17.6712L10.9031 12.2533ZM11.4962 6.75125C11.4962 5.55778 11.0192 4.41319 10.1701 3.56927C9.32104 2.72536 8.16947 2.25125 6.96872 2.25125C5.76797 2.25125 4.6164 2.72536 3.76734 3.56927C2.91828 4.41319 2.44128 5.55778 2.44128 6.75125C2.44128 7.94473 2.91828 9.08932 3.76734 9.93323C4.6164 10.7771 5.76797 11.2513 6.96872 11.2513C8.16947 11.2513 9.32104 10.7771 10.1701 9.93323C11.0192 9.08932 11.4962 7.94473 11.4962 6.75125Z" fill="white"/>
</svg>
