<svg width="20" height="20" viewBox="0 0 20 20" fill="none" xmlns="http://www.w3.org/2000/svg">
<path d="M1.6665 12.4658V7.53326C1.6665 7.05493 2.03984 6.6666 2.49984 6.6666H5.48817C5.59845 6.6662 5.7075 6.64348 5.80876 6.5998C5.91002 6.55612 6.00138 6.49238 6.07734 6.41243L8.57734 3.5891C9.10234 3.04243 9.99984 3.42993 9.99984 4.20243V15.7974C9.99984 16.5758 9.0915 16.9599 8.56984 16.4024L6.07817 13.5949C6.002 13.5127 5.90971 13.447 5.80706 13.402C5.70441 13.357 5.59359 13.3336 5.4815 13.3333H2.49984C2.03984 13.3333 1.6665 12.9449 1.6665 12.4658Z" stroke="white" stroke-width="2" stroke-linecap="round" stroke-linejoin="round"/>
<path d="M13.333 7.08325C14.4438 8.56492 14.4438 11.4349 13.333 12.9166" stroke="white" stroke-width="2" stroke-linecap="round" stroke-linejoin="round"/>
<path d="M15.833 4.1665C19.1563 7.33984 19.1763 12.6807 15.833 15.8332" stroke="white" stroke-width="2" stroke-linecap="round" stroke-linejoin="round"/>
</svg>
