<svg width="30" height="30" viewBox="0 0 719 719" fill="none" xmlns="http://www.w3.org/2000/svg">
<path d="M359.619 0.394592C161.978 0.394592 0.39502 161.978 0.39502 359.62C0.39502 557.261 161.978 718.845 359.619 718.845C557.259 718.845 718.842 557.261 718.842 359.62C718.842 161.978 558.988 0.394592 359.619 0.394592ZM524.861 519.475C517.699 530.229 505.082 533.844 494.327 526.592C409.91 474.572 303.961 463.795 178.143 492.465C165.638 496.17 154.861 487.189 151.224 476.3C147.722 463.795 156.612 453.041 167.367 449.426C303.961 418.892 422.528 431.397 515.836 488.941C528.476 494.329 530.205 508.698 524.839 519.475H524.861ZM567.991 420.665C558.988 433.306 542.845 438.694 530.205 429.668C433.282 370.374 285.933 352.502 172.867 388.38C158.476 391.882 142.221 384.765 138.719 370.351C135.104 355.982 142.221 339.84 156.612 336.225C287.819 296.688 449.402 316.557 560.739 384.743C571.605 390.131 576.994 408.115 567.991 420.643V420.665ZM571.628 320.105C456.564 251.785 264.424 244.668 154.861 278.816C136.878 284.182 118.961 273.428 113.573 257.173C108.207 239.279 118.961 221.273 135.104 215.885C262.696 178.144 472.796 185.373 605.777 264.402C621.919 273.406 627.263 294.937 618.282 311.079C609.279 323.72 587.748 329.063 571.605 320.082L571.628 320.105Z" fill="#1ED760"/>
</svg>
