<svg width="26" height="26" viewBox="0 0 26 26" fill="none" xmlns="http://www.w3.org/2000/svg">
<path d="M18.6536 14.5304L18.6378 14.5191L18.615 14.5052C15.4675 12.5797 10.749 12.0064 7.08871 13.155C7.07021 13.158 7.05018 13.1586 7.02991 13.1563C7.00368 13.1534 6.98255 13.1464 6.9683 13.1393C6.96527 13.1378 6.96275 13.1363 6.9607 13.1351C6.9571 13.1162 6.95618 13.0956 6.95839 13.075C6.96103 13.0502 6.96763 13.0303 6.97437 13.0167C6.97625 13.0129 6.97797 13.01 6.97941 13.0077L6.98328 13.0068L7.00002 13.0017C10.8217 11.8501 15.5474 12.4372 18.7669 14.4089L18.7679 14.4095C18.7704 14.4208 18.7701 14.4296 18.7694 14.434L18.7585 14.4492C18.7166 14.5019 18.6739 14.524 18.6536 14.5304ZM19.857 11.1345C17.9649 10.0165 15.4971 9.42352 13.1073 9.23355C10.7103 9.043 8.30317 9.25094 6.51261 9.80786C6.44285 9.82787 6.37519 9.81855 6.31324 9.78465C6.24953 9.74979 6.20311 9.69449 6.18112 9.63683C6.16455 9.5721 6.17373 9.50702 6.20705 9.44583C6.24292 9.37995 6.29903 9.33381 6.35442 9.3129C8.20103 8.76972 10.6836 8.54134 13.2083 8.74808C15.7429 8.95564 18.2477 9.59582 20.1546 10.729L20.1634 10.7343L20.1724 10.7393C20.2231 10.7676 20.2701 10.8225 20.2921 10.9069C20.3096 10.9735 20.3065 11.0415 20.2867 11.1002C20.2604 11.1207 20.2111 11.1495 20.1336 11.1658C20.0247 11.1887 19.9251 11.172 19.857 11.1345ZM13 1.25C6.53372 1.25 1.25 6.53372 1.25 13C1.25 19.4663 6.53372 24.75 13 24.75C19.4663 24.75 24.75 19.4663 24.75 13C24.75 6.53608 19.5216 1.25 13 1.25Z" stroke="white" stroke-width="1.5"/>
</svg>
