<svg width="345" height="347" viewBox="0 0 345 347" fill="none" xmlns="http://www.w3.org/2000/svg">
<path d="M216.432 6.51769C125.023 -17.9754 30.433 37.1913 6.14495 129.161C-18.1431 221.131 36.7327 316.347 128.142 340.84C219.552 365.333 314.141 310.167 338.429 218.197C362.718 126.227 308.641 31.225 216.432 6.51769ZM229.068 268.544C224.434 272.661 218.154 272.779 214.071 268.072C181.421 233.403 133.743 215.258 72.0288 213.008C65.7897 213.182 61.9091 207.667 61.5651 202.149C61.482 195.896 66.9156 191.993 72.3337 191.644C139.262 194.363 192.562 214.876 228.646 253.217C233.83 257.291 232.864 264.191 229.058 268.541L229.068 268.544ZM261.158 227.909C255.441 232.675 247.313 233.182 242.576 227.416C205.035 187.812 139.082 161.235 82.3796 163.919C75.2932 163.765 68.6498 158.439 68.8013 151.297C68.8953 144.163 74.1707 137.533 81.271 137.635C146.813 135.496 219.104 164.767 262.219 210.294C266.582 214.148 266.864 223.185 261.161 227.899L261.158 227.909ZM275.198 181.565C230.377 135.514 142.386 108.39 87.516 110.703C78.5391 110.971 71.5743 103.747 71.0798 95.5149C70.797 86.5232 77.9837 79.477 86.1119 78.9701C149.762 77.2198 246.046 106.621 297.837 159.877C304.197 166.067 304.022 176.748 297.885 183.147C292.168 187.913 281.553 187.731 275.191 181.552L275.198 181.565Z" fill="#1ED760"/>
</svg>
